<?xml version="1.0" encoding="UTF-8"?> <svg xmlns="http://www.w3.org/2000/svg" width="790" height="141" viewBox="0 0 790 141" fill="none"> <path d="M46.8405 76.6597L4.25488 52.021L13.3804 35.8993L28.2853 44.4164V12.7812H46.8405V76.6597Z" fill="#CFCFCF"></path> <path d="M55.665 49.2777L55.9692 0H74.5244V17.0343L102.205 1.52092L111.331 17.6426L55.665 49.2777Z" fill="#CFCFCF"></path> <path d="M22.5096 121.981L13.0799 106.164L27.6807 97.6468L0 82.1334L9.12549 66.0117L64.791 97.0384L22.5096 121.981Z" fill="#CFCFCF"></path> <path d="M121.978 128.367H103.423V64.4883L146.008 89.1271L136.883 105.249L121.978 96.7317V128.367Z" fill="#CFCFCF"></path> <path d="M93.9951 140.833H75.44V123.799L47.7593 139.312L38.6338 123.19L94.2993 91.8594L93.9951 140.833Z" fill="#CFCFCF"></path> <path d="M140.834 75.434L85.1689 44.1032L127.755 19.1602L137.184 34.9777L122.583 43.4948L150.264 59.3123L140.834 75.434Z" fill="#CFCFCF"></path> <path d="M170.647 19.7742C175.514 16.7324 181.294 15.5156 187.073 15.5156C190.115 15.5156 193.461 15.8198 196.503 16.4282C199.545 17.0365 202.282 17.6449 205.324 18.8616V30.4206C202.586 29.2039 199.849 28.2913 197.111 27.683C193.765 26.7704 190.419 26.4662 187.073 26.4662C185.248 26.4662 183.119 26.4662 181.294 27.0746C180.381 27.3788 179.773 27.683 179.164 28.2913C178.556 28.8997 177.948 29.8122 177.643 30.4206C177.339 31.3331 177.035 32.2457 177.035 33.1583C177.035 39.8503 187.377 39.8503 196.503 42.5879C198.632 43.1963 200.761 44.1088 202.586 45.3256C204.411 46.5423 205.932 48.3674 207.149 50.1925C208.366 52.626 208.974 55.3636 208.974 58.1013C208.974 71.7895 198.936 76.6564 186.16 76.6564C179.164 76.6564 171.864 75.4397 165.476 72.3979V60.2306C168.518 61.7515 171.56 62.9682 174.906 63.8807C178.252 64.7933 181.598 65.4017 184.944 65.4017C192.548 65.4017 195.894 63.5766 195.894 58.4055C195.894 52.0176 185.856 52.0176 177.339 49.5841C170.343 47.759 163.955 44.1088 163.955 34.0708C163.955 31.3331 164.259 28.5955 165.78 25.8579C167.301 23.1202 168.518 21.5993 170.647 19.7742Z" fill="#CFCFCF"></path> <path d="M219.016 75.4339V16.7266H263.122V27.6772H231.487V41.9738H256.126V52.6202H231.487V75.1297L219.016 75.4339Z" fill="#CFCFCF"></path> <path d="M297.798 75.4339V16.7266H341.904V27.6772H310.269V40.1487H337.95V51.0993H310.269V64.4833H342.513V75.4339H297.798Z" fill="#CFCFCF"></path> <path d="M350.721 75.4392V16.7319H373.23C391.785 16.4277 405.778 29.2034 405.474 45.9335C405.778 62.9677 391.785 75.4392 373.23 75.135L350.721 75.4392ZM363.192 64.7928H371.709C377.185 65.097 382.66 63.2719 387.223 59.9259C389.048 58.1008 390.569 56.2757 391.481 53.8422C392.394 51.4088 393.002 48.9753 392.698 46.5418C392.698 44.1084 392.394 41.3707 391.481 39.2414C390.569 36.808 389.048 34.6787 387.223 33.1578C382.964 29.5076 377.489 27.6825 371.709 27.9867H363.192V64.7928Z" fill="#CFCFCF"></path> <path d="M414.602 16.7266H427.073V50.4909C427.073 59.9206 431.94 64.7875 439.849 64.7875C447.758 64.7875 452.625 59.9206 452.625 50.4909V16.7266H465.096V50.7951C465.401 54.1411 464.792 57.7913 463.575 61.1373C462.359 64.4833 460.534 67.5251 458.1 69.9586C452.929 74.5214 446.541 76.9548 439.849 76.9548C433.157 76.9548 426.465 74.5214 421.598 69.9586C419.165 67.5251 417.34 64.4833 416.123 61.1373C414.906 57.7913 414.298 54.4453 414.602 50.7951V16.7266Z" fill="#CFCFCF"></path> <path d="M485.171 24.3309C491.558 18.5514 500.076 15.5096 508.593 15.8138C514.676 15.8138 520.456 17.0305 525.931 19.464V31.6313C520.76 28.8936 515.285 27.6769 509.505 27.9811C504.334 27.6769 499.163 29.502 495.209 33.1522C493.384 34.9773 491.863 37.1066 490.95 39.54C490.038 41.9735 489.733 44.407 489.733 47.1446C489.733 49.5781 490.037 52.3157 491.254 54.445C492.167 56.8785 493.688 59.0078 495.513 60.5287C499.163 63.8747 503.726 65.3956 508.593 65.3956C514.98 65.3956 521.064 63.5705 526.235 59.9203V72.696C520.152 75.7378 513.764 77.2588 506.768 77.2588C500.988 77.2588 495.513 76.042 490.646 73.3044C486.083 70.8709 482.129 66.9165 479.695 62.3538C476.958 57.4869 475.741 52.3157 475.741 46.8404C475.437 42.5819 476.349 38.6275 477.87 34.6731C479.695 30.7187 482.129 27.3727 485.171 24.3309Z" fill="#CFCFCF"></path> <path d="M531.104 75.4339L560.001 16.7266H563.347L593.157 75.4339H579.469L574.602 65.0917H548.746L543.879 75.4339H531.104ZM553.309 55.3578H570.039L561.522 37.1068L553.309 55.3578Z" fill="#CFCFCF"></path> <path d="M584.638 27.6772V16.7266H633.915V27.6772H615.36V75.4339H603.193V27.6772H584.638Z" fill="#CFCFCF"></path> <path d="M640.91 75.4339V16.7266H653.382V75.4339H640.91Z" fill="#CFCFCF"></path> <path d="M672.852 24.3419C676.502 20.6917 681.065 17.6499 685.931 16.129C690.798 14.6081 696.274 14.3039 701.445 15.2164C706.616 16.129 711.483 18.5624 715.437 21.9085C719.392 25.2545 722.433 29.513 724.563 34.38C726.084 38.0302 726.692 42.2887 726.692 46.2431C726.996 50.5017 726.084 54.4561 724.563 58.4104C722.433 64.1899 718.175 69.0568 713.004 72.4029C707.833 75.7489 701.749 77.2698 695.361 76.9656C687.148 77.2698 678.935 74.228 672.852 68.4485C670.114 65.4067 667.68 62.0606 666.16 58.1063C664.639 54.1519 664.03 50.1975 664.03 45.9389C664.03 41.9846 664.639 37.726 666.16 34.0758C667.68 30.7298 670.114 27.0796 672.852 24.3419ZM677.414 46.2431C677.414 48.6766 677.719 51.4142 678.631 53.5435C679.544 55.977 680.76 58.1063 682.585 59.9314C684.411 61.7565 686.236 62.9732 688.669 63.8857C690.798 64.7983 693.232 65.1025 695.665 65.1025C698.099 65.1025 700.532 64.7983 702.662 63.8857C704.791 62.9732 706.92 61.7565 708.745 59.9314C710.57 58.1063 711.787 55.977 712.7 53.5435C713.612 51.11 713.916 48.6766 713.916 46.2431C713.916 43.8097 713.612 41.072 712.7 38.6385C711.787 36.2051 710.57 34.0758 708.745 32.2507C705.399 28.9047 700.532 27.0796 695.97 27.0796C691.103 27.0796 686.54 28.9047 683.194 32.2507C681.369 34.0758 680.152 36.2051 679.239 38.6385C677.719 41.3762 677.414 43.8097 677.414 46.2431Z" fill="#CFCFCF"></path> <path d="M737.342 75.4339V16.7266H741.296L777.19 51.7076V16.7266H789.053V75.4339H784.794L749.205 40.4529V75.4339H737.342Z" fill="#CFCFCF"></path> <path d="M164.162 109.661C164.162 106.687 165.314 104.254 167.616 102.361C169.907 100.468 172.973 99.5216 176.815 99.5216V97.3372H180.664V99.5216C184.494 99.5216 187.566 100.468 189.882 102.361C192.172 104.254 193.317 106.687 193.317 109.661C193.317 111.105 193.023 112.464 192.435 113.738C191.859 115 191.033 116.098 189.957 117.033C188.868 117.979 187.516 118.72 185.902 119.254C184.3 119.775 182.554 120.036 180.664 120.036V122.639H176.815V120.036C174.926 120.036 173.18 119.775 171.578 119.254C169.976 118.72 168.63 117.979 167.541 117.033C166.465 116.098 165.633 115 165.044 113.738C164.456 112.464 164.162 111.105 164.162 109.661ZM168.086 109.788C168.086 111.863 168.856 113.52 170.395 114.757C171.922 116.007 174.062 116.651 176.815 116.687V102.889C173.949 102.889 171.778 103.496 170.301 104.709C168.824 105.911 168.086 107.604 168.086 109.788ZM180.664 102.889V116.687C183.418 116.651 185.558 116.007 187.085 114.757C188.624 113.52 189.394 111.863 189.394 109.788C189.394 107.604 188.655 105.911 187.179 104.709C185.702 103.496 183.53 102.889 180.664 102.889Z" fill="#CFCFCF"></path> <path d="M198.48 121.711H197.053V103.144H201.052V114.994L213.443 103.144H214.851V121.711H210.852V109.861L198.48 121.711Z" fill="#CFCFCF"></path> <path d="M223.993 121.711H219.995V103.144H223.993V110.862H233.493V103.144H237.492V121.711H233.493V113.993H223.993V121.711Z" fill="#CFCFCF"></path> <path d="M241.528 116.086C241.528 113.841 242.329 112.215 243.931 111.208C245.395 110.286 247.235 109.824 249.45 109.824C250.176 109.824 251.09 109.928 252.191 110.134C253.168 110.316 254.15 110.595 255.139 110.971V109.297C255.139 106.967 253.305 105.802 249.638 105.802C247.235 105.802 245.208 106.196 243.556 106.985V103.635C245.808 102.883 247.974 102.507 250.051 102.507C252.141 102.507 253.881 102.792 255.27 103.362C256.059 103.702 256.728 104.139 257.279 104.673C258.468 105.886 259.063 107.652 259.063 109.97V121.711H256.397L255.946 118.799C254.995 119.976 253.912 120.825 252.698 121.347C251.484 121.869 250.082 122.13 248.493 122.13C246.728 122.13 245.151 121.632 243.762 120.637C243.074 120.139 242.529 119.496 242.129 118.707C241.728 117.919 241.528 117.045 241.528 116.086ZM245.639 115.668C245.639 117.985 246.985 119.144 249.676 119.144C250.727 119.144 251.747 118.829 252.736 118.198C253.712 117.591 254.513 116.748 255.139 115.668V114.139C253.574 113.192 251.828 112.719 249.901 112.719C247.06 112.719 245.639 113.702 245.639 115.668Z" fill="#CFCFCF"></path> <path d="M268.186 121.711H264.188V103.144H268.186V110.862H277.686V103.144H281.685V121.711H277.686V113.993H268.186V121.711Z" fill="#CFCFCF"></path> <path d="M285.721 112.537C285.721 109.503 286.653 107.07 288.518 105.237C290.383 103.417 292.899 102.507 296.065 102.507C298.005 102.507 299.695 102.78 301.134 103.326V106.53C299.67 106.044 298.13 105.802 296.516 105.802C294.326 105.802 292.661 106.36 291.522 107.476C290.396 108.581 289.832 110.219 289.832 112.391C289.832 114.527 290.433 116.165 291.635 117.306C292.849 118.459 294.438 119.035 296.403 119.035C298.255 119.035 299.908 118.72 301.359 118.089V121.347C299.757 122.014 297.924 122.348 295.859 122.348C293.956 122.385 292.235 122.008 290.696 121.22C289.157 120.431 287.936 119.278 287.035 117.761C286.147 116.244 285.708 114.503 285.721 112.537Z" fill="#CFCFCF"></path> <path d="M303.744 112.537C303.744 109.6 304.664 107.197 306.503 105.328C308.343 103.447 310.821 102.507 313.938 102.507C315.565 102.519 317.042 102.792 318.368 103.326C319.695 103.848 320.778 104.57 321.616 105.492C323.281 107.349 324.113 109.624 324.113 112.318C324.113 115.243 323.199 117.646 321.372 119.527C319.532 121.408 317.054 122.348 313.938 122.348C312.311 122.336 310.828 122.069 309.488 121.547C308.162 121.013 307.079 120.279 306.241 119.345C304.576 117.512 303.744 115.243 303.744 112.537ZM307.855 112.245C307.855 114.078 308.331 115.655 309.282 116.978C310.308 118.422 311.86 119.144 313.938 119.144C314.826 119.144 315.621 119.017 316.322 118.762C317.035 118.495 317.617 118.149 318.068 117.725C318.518 117.3 318.894 116.796 319.194 116.214C319.495 115.631 319.701 115.043 319.814 114.448C319.939 113.853 320.002 113.241 320.002 112.609C320.002 111.711 319.883 110.862 319.645 110.061C319.407 109.26 319.05 108.532 318.575 107.877C318.112 107.209 317.48 106.681 316.679 106.293C315.878 105.905 314.964 105.711 313.938 105.711C312.861 105.711 311.91 105.905 311.084 106.293C310.258 106.669 309.613 107.191 309.15 107.858C308.287 109.108 307.855 110.571 307.855 112.245Z" fill="#CFCFCF"></path> <path d="M328.168 121.784V103.107C330.346 102.962 333.293 102.889 337.01 102.889C338.838 102.889 340.315 103.053 341.441 103.381C342.104 103.575 342.667 103.842 343.131 104.181C344.132 104.91 344.632 105.984 344.632 107.403C344.632 109.43 343.594 110.971 341.516 112.027C344.132 112.816 345.44 114.369 345.44 116.687C345.44 117.451 345.283 118.143 344.97 118.762C344.658 119.381 344.163 119.939 343.487 120.437C342.824 120.922 341.904 121.298 340.728 121.565C339.551 121.832 338.162 121.966 336.56 121.966C332.83 121.966 330.033 121.905 328.168 121.784ZM332.129 113.629V118.799H337.405C338.706 118.799 339.689 118.574 340.352 118.125C341.028 117.664 341.366 117.009 341.366 116.159C341.366 114.472 340.02 113.629 337.33 113.629H332.129ZM332.129 105.802V110.862H336.898C338.112 110.862 339.044 110.625 339.695 110.152C340.346 109.679 340.671 109.036 340.671 108.223C340.671 107.397 340.358 106.791 339.733 106.402C339.119 106.002 338.087 105.802 336.635 105.802H332.129Z" fill="#CFCFCF"></path> <path d="M358.694 121.711H349.532V103.144H353.531V109.824C354.908 109.521 356.278 109.369 357.643 109.369C360.121 109.369 362.073 109.915 363.5 111.008C364.927 112.1 365.64 113.617 365.64 115.558C365.64 117.427 365.021 118.92 363.781 120.036C362.53 121.153 360.834 121.711 358.694 121.711ZM353.531 112.719V118.762H357.999C360.377 118.762 361.566 117.67 361.566 115.486C361.566 114.855 361.454 114.327 361.228 113.902C361.003 113.465 360.678 113.131 360.252 112.901C359.839 112.67 359.395 112.512 358.919 112.427C358.444 112.33 357.893 112.282 357.267 112.282C356.028 112.282 354.783 112.427 353.531 112.719ZM371.91 121.711H367.912V103.144H371.91V121.711Z" fill="#CFCFCF"></path> <path d="M378.481 121.711H377.054V103.144H381.053V114.994L393.444 103.144H394.852V121.711H390.853V109.861L378.481 121.711ZM380.021 95.4258H383.588C383.625 97.2704 384.689 98.1926 386.779 98.1926C388.869 98.1926 389.933 97.2704 389.971 95.4258H393.556C393.431 97.1611 392.737 98.5506 391.473 99.5943C390.221 100.626 388.656 101.142 386.779 101.142C384.914 101.142 383.356 100.626 382.105 99.5943C380.84 98.5506 380.146 97.1611 380.021 95.4258Z" fill="#CFCFCF"></path> <path d="M410.04 112.537C410.04 109.6 410.959 107.197 412.799 105.328C414.639 103.447 417.117 102.507 420.234 102.507C421.861 102.519 423.338 102.792 424.664 103.326C425.991 103.848 427.073 104.57 427.912 105.492C429.577 107.349 430.409 109.624 430.409 112.318C430.409 115.243 429.495 117.646 427.668 119.527C425.828 121.408 423.35 122.348 420.234 122.348C418.607 122.336 417.123 122.069 415.784 121.547C414.458 121.013 413.375 120.279 412.536 119.345C410.872 117.512 410.04 115.243 410.04 112.537ZM414.151 112.245C414.151 114.078 414.627 115.655 415.578 116.978C416.604 118.422 418.156 119.144 420.234 119.144C421.122 119.144 421.917 119.017 422.618 118.762C423.331 118.495 423.913 118.149 424.364 117.725C424.814 117.3 425.19 116.796 425.49 116.214C425.791 115.631 425.997 115.043 426.11 114.448C426.235 113.853 426.297 113.241 426.297 112.609C426.297 111.711 426.179 110.862 425.941 110.061C425.703 109.26 425.346 108.532 424.871 107.877C424.408 107.209 423.776 106.681 422.975 106.293C422.174 105.905 421.26 105.711 420.234 105.711C419.157 105.711 418.206 105.905 417.38 106.293C416.554 106.669 415.909 107.191 415.446 107.858C414.583 109.108 414.151 110.571 414.151 112.245Z" fill="#CFCFCF"></path> <path d="M438.463 121.711H434.464V103.144H438.463V110.862H447.962V103.144H451.961V121.711H447.962V113.993H438.463V121.711Z" fill="#CFCFCF"></path> <path d="M455.115 121.784L455.415 118.616C455.716 118.689 455.997 118.726 456.26 118.726C457.149 118.726 457.837 118.41 458.325 117.779C458.826 117.148 459.208 116.05 459.47 114.484C459.696 113.162 459.865 110.971 459.977 107.913C460.027 106.238 460.059 104.649 460.071 103.144H474.602V121.711H470.791V106.311H463.45C463.45 112.5 462.95 116.754 461.949 119.072C461.36 120.431 460.403 121.292 459.076 121.656C458.538 121.814 457.856 121.893 457.03 121.893C456.417 121.893 455.778 121.857 455.115 121.784Z" fill="#CFCFCF"></path> <path d="M478.638 116.086C478.638 113.841 479.439 112.215 481.041 111.208C482.506 110.286 484.345 109.824 486.561 109.824C487.287 109.824 488.2 109.928 489.302 110.134C490.278 110.316 491.26 110.595 492.249 110.971V109.297C492.249 106.967 490.416 105.802 486.748 105.802C484.345 105.802 482.318 106.196 480.666 106.985V103.635C482.919 102.883 485.084 102.507 487.161 102.507C489.252 102.507 490.991 102.792 492.38 103.362C493.169 103.702 493.839 104.139 494.389 104.673C495.578 105.886 496.173 107.652 496.173 109.97V121.711H493.507L493.056 118.799C492.105 119.976 491.023 120.825 489.808 121.347C488.594 121.869 487.193 122.13 485.603 122.13C483.839 122.13 482.262 121.632 480.872 120.637C480.184 120.139 479.639 119.496 479.239 118.707C478.838 117.919 478.638 117.045 478.638 116.086ZM482.75 115.668C482.75 117.985 484.095 119.144 486.786 119.144C487.837 119.144 488.857 118.829 489.846 118.198C490.822 117.591 491.623 116.748 492.249 115.668V114.139C490.685 113.192 488.939 112.719 487.011 112.719C484.17 112.719 482.75 113.702 482.75 115.668Z" fill="#CFCFCF"></path> <path d="M502.725 121.711H501.298V103.144H505.297V114.994L517.687 103.144H519.095V121.711H515.096V109.861L502.725 121.711ZM504.264 95.4258H507.831C507.869 97.2704 508.932 98.1926 511.023 98.1926C513.113 98.1926 514.177 97.2704 514.214 95.4258H517.8C517.675 97.1611 516.98 98.5506 515.716 99.5943C514.464 100.626 512.9 101.142 511.023 101.142C509.158 101.142 507.6 100.626 506.348 99.5943C505.084 98.5506 504.389 97.1611 504.264 95.4258Z" fill="#CFCFCF"></path> <path d="M528.238 121.711H524.239V103.144H528.238V110.862H537.737V103.144H541.736V121.711H537.737V113.993H528.238V121.711Z" fill="#CFCFCF"></path> <path d="M557.656 114.139H546.11V110.716H557.656V114.139Z" fill="#CFCFCF"></path> <path d="M567.475 119.69L559.515 103.144H563.983L569.371 115.74L574.665 103.144H578.664L566.799 128.792H562.669L567.475 119.69Z" fill="#CFCFCF"></path> <path d="M585.047 121.711H581.048V103.144H585.047V110.862H594.546V103.144H598.545V121.711H594.546V113.993H585.047V121.711Z" fill="#CFCFCF"></path> <path d="M605.116 121.711H603.689V103.144H607.688V114.994L620.078 103.144H621.486V121.711H617.488V109.861L605.116 121.711Z" fill="#CFCFCF"></path> <path d="M626.63 121.784V103.107C628.808 102.962 631.755 102.889 635.473 102.889C637.3 102.889 638.777 103.053 639.903 103.381C640.567 103.575 641.13 103.842 641.593 104.181C642.594 104.91 643.095 105.984 643.095 107.403C643.095 109.43 642.056 110.971 639.978 112.027C642.594 112.816 643.902 114.369 643.902 116.687C643.902 117.451 643.746 118.143 643.433 118.762C643.12 119.381 642.625 119.939 641.95 120.437C641.286 120.922 640.366 121.298 639.19 121.565C638.013 121.832 636.624 121.966 635.022 121.966C631.292 121.966 628.495 121.905 626.63 121.784ZM630.592 113.629V118.799H635.867C637.169 118.799 638.151 118.574 638.814 118.125C639.49 117.664 639.828 117.009 639.828 116.159C639.828 114.472 638.483 113.629 635.792 113.629H630.592ZM630.592 105.802V110.862H635.36C636.574 110.862 637.506 110.625 638.157 110.152C638.808 109.679 639.133 109.036 639.133 108.223C639.133 107.397 638.821 106.791 638.195 106.402C637.582 106.002 636.549 105.802 635.097 105.802H630.592Z" fill="#CFCFCF"></path> <path d="M647.262 112.355C647.262 110.85 647.532 109.466 648.07 108.204C648.608 106.93 649.353 105.88 650.304 105.055C652.256 103.356 654.547 102.507 657.175 102.507C658.727 102.507 660.104 102.743 661.305 103.217C662.519 103.678 663.489 104.333 664.215 105.183C665.629 106.845 666.336 108.939 666.336 111.463C666.336 112.13 666.28 113.022 666.167 114.139H651.411C651.699 115.983 652.594 117.3 654.096 118.089C655.435 118.792 656.975 119.144 658.714 119.144C660.967 119.144 662.995 118.756 664.797 117.979V121.147C663.946 121.547 662.92 121.844 661.718 122.039C660.416 122.245 659.184 122.348 658.02 122.348C656.23 122.348 654.628 122.093 653.214 121.584C651.812 121.074 650.679 120.352 649.816 119.417C648.114 117.609 647.262 115.255 647.262 112.355ZM651.336 111.19H662.413C662.413 109.466 661.925 108.119 660.948 107.149C659.972 106.19 658.714 105.711 657.175 105.711C655.448 105.711 654.065 106.196 653.026 107.167C652 108.138 651.436 109.479 651.336 111.19Z" fill="#CFCFCF"></path> <path d="M674.672 128.792H670.711V103.144H673.827V106.42C675.729 103.811 678.433 102.507 681.937 102.507C683.352 102.507 684.622 102.749 685.748 103.235C686.875 103.72 687.788 104.4 688.489 105.274C689.891 107.033 690.592 109.284 690.592 112.027C690.592 114.879 689.803 117.288 688.226 119.254C687.45 120.212 686.468 120.971 685.279 121.529C684.09 122.075 682.788 122.348 681.374 122.348C678.771 122.348 676.537 121.626 674.672 120.182V128.792ZM674.634 109.297V116.869C676.274 118.204 678.276 118.871 680.642 118.871C681.643 118.859 682.525 118.677 683.289 118.325C684.052 117.961 684.659 117.47 685.11 116.851C685.573 116.22 685.917 115.516 686.143 114.739C686.368 113.95 686.48 113.095 686.48 112.173C686.48 110.231 685.986 108.72 684.997 107.64C684.021 106.56 682.569 106.02 680.642 106.02C679.503 106.02 678.383 106.305 677.281 106.876C676.205 107.434 675.323 108.241 674.634 109.297Z" fill="#CFCFCF"></path> <path d="M693.295 112.537C693.295 109.503 694.228 107.07 696.093 105.237C697.957 103.417 700.473 102.507 703.64 102.507C705.579 102.507 707.269 102.78 708.708 103.326V106.53C707.244 106.044 705.705 105.802 704.09 105.802C701.9 105.802 700.235 106.36 699.096 107.476C697.97 108.581 697.407 110.219 697.407 112.391C697.407 114.527 698.007 116.165 699.209 117.306C700.423 118.459 702.012 119.035 703.977 119.035C705.83 119.035 707.482 118.72 708.934 118.089V121.347C707.332 122.014 705.498 122.348 703.433 122.348C701.531 122.385 699.81 122.008 698.27 121.22C696.731 120.431 695.511 119.278 694.609 117.761C693.721 116.244 693.283 114.503 693.295 112.537Z" fill="#CFCFCF"></path> <path d="M714.303 121.711H712.876V103.144H716.875V114.994L729.265 103.144H730.673V121.711H726.675V109.861L714.303 121.711Z" fill="#CFCFCF"></path> <path d="M740.398 106.311H734.203V103.144H750.592V106.311H744.397V121.711H740.398V106.311Z" fill="#CFCFCF"></path> <path d="M751.794 112.355C751.794 110.85 752.063 109.466 752.601 108.204C753.139 106.93 753.884 105.88 754.835 105.055C756.787 103.356 759.078 102.507 761.706 102.507C763.258 102.507 764.635 102.743 765.836 103.217C767.05 103.678 768.02 104.333 768.746 105.183C770.161 106.845 770.868 108.939 770.868 111.463C770.868 112.13 770.811 113.022 770.699 114.139H755.943C756.231 115.983 757.125 117.3 758.627 118.089C759.966 118.792 761.506 119.144 763.246 119.144C765.498 119.144 767.526 118.756 769.328 117.979V121.147C768.477 121.547 767.451 121.844 766.249 122.039C764.948 122.245 763.715 122.348 762.551 122.348C760.761 122.348 759.159 122.093 757.745 121.584C756.343 121.074 755.21 120.352 754.347 119.417C752.645 117.609 751.794 115.255 751.794 112.355ZM755.868 111.19H766.944C766.944 109.466 766.456 108.119 765.48 107.149C764.503 106.19 763.246 105.711 761.706 105.711C759.979 105.711 758.596 106.196 757.557 107.167C756.531 108.138 755.968 109.479 755.868 111.19Z" fill="#CFCFCF"></path> <path d="M778.584 106.311H772.388V103.144H788.778V106.311H782.582V121.711H778.584V106.311Z" fill="#CFCFCF"></path> </svg> 