<?xml version="1.0" encoding="UTF-8"?> <svg xmlns="http://www.w3.org/2000/svg" width="263" height="56" viewBox="0 0 263 56" fill="none"> <g clip-path="url(#clip0)"> <path fill-rule="evenodd" clip-rule="evenodd" d="M4.53125 0C2.04 0 0 2.04125 0 4.53125V51.0312C0 53.5225 2.04 55.5625 4.53125 55.5625C7.02125 55.5625 9.0625 53.5225 9.0625 51.0312V4.53125C9.0625 2.04125 7.02125 0 4.53125 0ZM22.625 0C20.1337 0 18.0937 2.04125 18.0938 4.53125V51.0312C18.0938 53.5225 20.1337 55.5625 22.625 55.5625C25.115 55.5625 27.1562 53.5225 27.1562 51.0312V4.53125C27.1562 2.04125 25.115 0 22.625 0Z" fill="#CFCFCF"></path> <path fill-rule="evenodd" clip-rule="evenodd" d="M214.188 7.375V47.6875H222.281V7.375H214.188ZM160.188 7.5V47.8125H168.281V7.5H160.188ZM171.281 7.5V47.8125H179.375V7.5H171.281ZM47.25 7.625C45.2387 7.63875 43.435 8.14 42.0312 9.65625C40.9075 11.065 40.7563 12.5113 40.75 14.25V47.9375H49.6562V34.2188H67C69.46 34.1688 71.8288 33.5375 73.7188 31.9062C75.795 29.8937 76.56 27.2188 76.9062 24.375C77.155 22.0025 77.1687 19.5587 76.9062 17.1875C76.6675 15.3312 76.2337 13.58 75.3125 11.9375C73.2325 8.55 69.8275 7.65625 66.0625 7.625H65.6562H47.25ZM257.812 12.3438C257.468 12.3788 257.228 12.6188 257.219 12.9688V16.8125H258.156V13.4062C258.167 13.295 258.173 13.3712 258.188 13.4062V13.4375L259.312 16.3125C259.438 16.6688 259.626 16.8813 260.031 16.875C260.409 16.8562 260.528 16.63 260.656 16.3125L261.75 13.4375C261.765 13.3925 261.81 13.2788 261.812 13.4062V16.8125H262.719V12.9688C262.699 12.5525 262.454 12.3788 262.062 12.3438C261.604 12.3312 261.324 12.4975 261.156 12.9375L260.031 15.8125C259.967 15.9488 259.969 15.9525 259.906 15.8125L258.812 12.9375C258.774 12.8438 258.709 12.7425 258.656 12.6562C258.452 12.36 258.148 12.3138 257.812 12.3438ZM252.719 12.375V13.1562H254.406V16.8125H255.344V13.1562H257.031V12.375H252.719ZM51.0625 15.0312H62.8438C65.6037 15.0563 67.2588 15.7025 67.7812 18.5312C68.0413 20.3312 68.0563 22.3212 67.625 24.0938C66.8975 26.5725 64.9125 26.8125 62.7188 26.8125H49.6562V16.5625C49.6575 16.1337 49.6413 15.6562 49.9375 15.3125C50.28 15.02 50.6337 15.0312 51.0625 15.0312ZM196.844 16.7812C192.654 16.8125 188.216 17.1888 185.031 20.3125C182.02 23.545 181.899 27.9462 181.875 32.125C181.871 34.1388 181.896 36.1237 182.156 38.125C182.489 40.4525 183.138 42.5825 184.625 44.4375C186.283 46.3175 188.269 47.2337 190.719 47.625C191.724 47.7562 192.736 47.8125 193.75 47.8125H210.812V41.2188H195.688L194.812 41.1875C192.94 41.0563 191.494 40.64 190.688 38.8125C190.331 37.6888 190.267 36.4875 190.219 35.3125H206.406C208.668 35.2775 210.415 34.2975 211.281 32.1562C211.726 30.8525 211.808 29.3987 211.75 28.0312C211.61 24.7037 210.746 21.7088 208.188 19.5C204.947 16.93 200.804 16.7812 196.844 16.7812ZM122.125 16.9062C118.378 16.9062 115.065 17.5213 112.312 20.0938C110.051 22.5687 109.535 25.4938 109.5 28.75V47.8125H117.562V30.4688C117.577 28.8175 117.706 27.185 118.531 25.7188C119.746 23.8837 121.714 23.5125 123.781 23.5H128.875V16.9062H122.125ZM130.719 16.9062V23.5H145.938C146.854 23.5088 147.669 23.6525 148.344 24.3125C148.968 25.03 149.126 25.8025 149.125 26.7188V27.9375H137.219C135.511 27.9488 134.019 28.2 132.5 29.0312C129.316 31.0312 128.592 34.0563 128.562 37.5938C128.585 41.1513 129.146 44.9825 132.5 46.9375C134.03 47.6875 135.543 47.8125 137.219 47.8125H151.219C155.126 47.7862 157.204 45.9688 157.219 42.0938V26.875C157.18 24.7013 156.85 22.6475 155.812 20.7188C154.16 18.0075 151.253 16.9763 148.188 16.9062H130.719ZM234 16.9062C229.55 16.9237 225.976 18.2275 224.969 22.9688C224.46 25.8875 224.838 29.0625 226.875 31.3438C228.606 33.0625 230.879 33.8625 233.188 34.5L238.812 36.0625C240.218 36.4487 241.641 36.8125 243 37.3438C243.403 37.5138 243.87 37.7262 244.094 38.125C244.419 38.7012 244.494 39.8112 244.156 40.4062C243.819 41 243.152 41.2 242.438 41.2188H225.156V47.8125H244.719C249.872 47.78 252.681 44.6838 252.656 39.5625C252.641 36.7213 251.713 34.1387 249.25 32.4688C247.314 31.3087 245.215 30.6875 243.062 30.0625L236.719 28.3125C235.612 27.995 234.281 27.65 233.344 26.9688C232.786 26.4575 232.729 26.0813 232.719 25.3438C232.74 23.9675 233.317 23.5 235 23.5H251.344V16.9062H234ZM80 17.0312V23.625H95.25C96.165 23.6338 96.95 23.7775 97.625 24.4375C98.2487 25.155 98.4075 25.9275 98.4062 26.8438V28.0625H86.5C84.7925 28.0738 83.3012 28.325 81.7812 29.1562C78.5988 31.1575 77.875 34.1825 77.8438 37.7188C77.8662 41.2775 78.43 45.1087 81.7812 47.0625C83.3125 47.8125 84.8238 47.9375 86.5 47.9375H100.5C104.41 47.9088 106.486 46.0938 106.5 42.2188V27C106.461 24.8263 106.133 22.7737 105.094 20.8438C103.441 18.1325 100.533 17.1013 97.4688 17.0312H80ZM196.844 23.375C199.831 23.3912 203.07 23.9875 203.406 27.5312C203.427 28.2125 203.498 28.6463 202.75 28.7188H190.219C190.26 27.3675 190.45 26 191.438 24.9688C192.663 23.69 194.682 23.375 196.844 23.375ZM139.156 34.5312H149.125V40.4688C149.131 41.2188 148.669 41.2188 148.062 41.2188H139.062C137.153 41.0963 136.893 39.3975 136.875 37.875C136.904 36.1362 137.046 34.58 139.156 34.5312ZM88.4688 34.6562H98.4062V40.5938C98.4125 41.3438 97.95 41.3438 97.3438 41.3438H88.375C86.465 41.2237 86.1738 39.5225 86.1562 38C86.1837 36.2612 86.3575 34.705 88.4688 34.6562Z" fill="#CFCFCF"></path> </g> <defs> <clipPath id="clip0"> <rect width="262.733" height="55.5525" fill="white"></rect> </clipPath> </defs> </svg> 