<?xml version="1.0" encoding="UTF-8"?> <svg xmlns="http://www.w3.org/2000/svg" width="870" height="185" viewBox="0 0 870 185" fill="none"> <g clip-path="url(#clip0_604_2)"> <path d="M734.507 -0.00387895C734.987 0.474788 735.472 0.957461 735.951 1.43613C768.138 31.2215 800.32 61.0051 832.515 90.7905C832.515 62.4441 832.515 33.6215 832.515 5.28012C845.002 5.28012 857.491 5.28012 869.979 5.28012C869.979 65.328 869.979 124.898 869.979 184.947C837.315 154.682 804.649 123.934 771.501 93.6708C771.501 122.02 771.501 150.36 771.501 178.703C759.007 178.703 746.998 178.703 734.507 178.703C734.507 119.611 734.507 59.5624 734.507 -0.00387895Z" fill="#CFCFCF"></path> <path d="M12.9703 27.859C23.0584 12.9656 40.8333 4.80163 58.126 2.87897C84.5459 0.474966 113.37 4.80164 134.028 23.055C125.38 31.2216 116.254 38.9083 107.604 47.0736C97.9984 38.4256 85.0287 34.103 72.0573 34.103C62.4489 33.6216 52.3604 36.987 47.0781 45.151C43.2344 50.919 44.6745 59.5626 49.9609 63.8882C58.6041 71.0939 69.6536 74.4548 80.224 78.2986C95.5953 83.1043 110.969 88.3871 123.458 98.9558C140.751 112.89 144.593 141.23 131.145 159.004C119.615 174.38 100.881 182.545 82.1459 183.982C65.3307 184.46 48.5172 183.982 32.664 178.223C20.6547 174.38 10.0875 167.65 0 160.44C8.64479 152.276 17.7719 144.108 26.4193 135.944C41.3115 147.475 60.5271 153.719 79.2631 151.318C87.4287 149.88 96.0781 145.552 98.9593 137.387C100.881 130.184 96.5563 122.976 90.3115 119.611C71.0964 108.56 48.5172 106.166 29.7812 94.1511C19.6927 87.9063 11.0479 78.2986 7.68385 66.7724C3.84375 53.3194 5.28229 38.9083 12.9703 27.859Z" fill="#CFCFCF"></path> <path d="M203.203 5.76139C215.692 5.76139 228.184 5.76139 240.671 5.76139C240.671 28.8201 240.671 51.3961 240.671 74.4546C266.136 74.4546 291.115 74.4546 316.573 74.4546C316.573 51.3961 316.573 28.8201 316.573 5.76139C329.065 5.76139 342.032 5.76139 354.525 5.76139C354.525 63.8879 354.525 121.533 354.525 179.659C342.032 179.659 329.065 179.659 316.573 179.659C316.573 154.203 316.573 128.257 316.573 102.801C291.115 102.801 266.136 102.801 240.671 102.801C240.671 128.257 240.671 154.203 240.671 179.659C228.184 179.659 215.692 179.659 203.203 179.659C203.203 122.02 203.203 63.8879 203.203 5.76139" fill="#CFCFCF"></path> <path d="M428.021 5.76139C470.775 5.76139 513.053 5.76139 555.805 5.76139C555.805 14.8881 555.805 24.4947 555.805 33.6214C525.543 33.6214 495.278 33.6214 465.015 33.6214C465.015 47.5534 465.015 61.005 465.015 74.9363C494.794 74.9363 524.584 74.9363 554.363 74.9363C554.363 84.0639 554.363 93.1899 554.363 102.32C524.584 102.32 494.794 102.32 465.015 102.32C465.015 118.174 465.015 134.028 465.015 149.88C495.278 149.88 525.543 149.88 555.805 149.88C555.805 159.963 555.805 169.571 555.805 179.659C513.053 179.659 470.775 179.659 428.021 179.659C428.021 122.02 428.021 63.8879 428.021 5.76139Z" fill="#CFCFCF"></path> <path d="M622.578 5.76139C635.066 5.76139 647.559 5.76139 660.05 5.76139C660.05 63.8879 660.05 121.533 660.05 179.659C647.559 179.659 635.066 179.659 622.578 179.659C622.578 122.02 622.578 63.8879 622.578 5.76139Z" fill="#CFCFCF"></path> </g> <defs> <clipPath id="clip0_604_2"> <rect width="869.973" height="184.947" fill="white"></rect> </clipPath> </defs> </svg> 