<?xml version="1.0" encoding="UTF-8"?> <svg xmlns="http://www.w3.org/2000/svg" width="298" height="263" viewBox="0 0 298 263" fill="none"> <path d="M0.535156 188.5C0.535156 214.5 14.0352 262.5 92.5352 262.5C163.035 262.5 187.535 227 197.035 185H217.035L204.535 215V220C204.535 244 218.035 257.5 242.035 257.5H297.535V187.5H261.035V116.5C261.035 33.5 200.035 0 130.535 0C60.0352 0 5.53516 37.5 5.53516 101.5H80.5352C80.5352 78.5 98.5352 65 130.535 65C165.035 65 181.035 77.5 181.035 98L101.535 109C26.5352 119.5 0.535156 145 0.535156 188.5ZM80.5352 173.5C80.5352 159 92.5352 155.5 116.535 152L181.035 143C181.035 174 152.035 192.5 108.035 192.5C94.5352 192.5 80.5352 188 80.5352 173.5Z" fill="url(#paint0_linear)"></path> <defs> <linearGradient id="paint0_linear" x1="-862.844" y1="-95.4999" x2="297.156" y2="262.5" gradientUnits="userSpaceOnUse"> <stop stop-color="#5B86E5"></stop> <stop offset="0.53125" stop-color="#5B85BB"></stop> <stop offset="1" stop-color="#36D1DC"></stop> </linearGradient> </defs> </svg> 