<?xml version="1.0" encoding="UTF-8"?> <svg xmlns="http://www.w3.org/2000/svg" width="150" height="34" viewBox="0 0 150 34" fill="none"> <path fill-rule="evenodd" clip-rule="evenodd" d="M20.9422 23.8046C20.9422 29.0498 16.7652 32.8536 10.1302 32.8536C6.28287 32.747 2.63691 31.1106 0 28.3071L2.219 25.853C4.29592 27.8305 6.73967 29.7524 10.0862 29.7524C13.8035 29.7524 17.8114 27.6678 17.8114 23.9247C17.8114 20.8158 15.3405 18.7879 10.1482 17.1888C4.23135 15.3806 1.22574 12.9265 1.22574 8.31285C1.22574 3.74698 5.09027 0 10.5964 0C14.709 0 17.2819 1.75272 19.7863 3.9924L17.6048 6.41418C15.409 4.46899 13.3166 3.15025 10.7488 3.15025C7.56372 3.15025 4.41991 5.20393 4.41991 8.16045C4.41991 10.8393 5.95952 12.5455 11.3946 14.2091C16.3726 15.7422 20.9422 18.1175 20.9422 23.8032V23.8046ZM47.7989 3.02516C47.7989 4.46368 48.9648 5.62984 50.4029 5.62984C51.0936 5.63017 51.7561 5.35587 52.2444 4.86732C52.7329 4.37878 53.0071 3.71606 53.0068 3.02516C53.0068 1.58663 51.8409 0.42048 50.4029 0.42048C48.9648 0.42048 47.7989 1.58663 47.7989 3.02516ZM72.9972 0.95433H69.8584V32.3391H72.9972V0.95433ZM80.3224 31.2944C80.3224 31.2944 82.2546 32.8637 88.692 32.8637L88.6881 32.8625C95.0429 32.8625 100.2 28.2152 100.2 21.8656C100.2 15.516 95.0467 10.8869 88.692 10.8869C86.8894 10.8386 85.0998 11.2045 83.461 11.9563V0.95433H80.3224V31.2944ZM103.865 21.8931C103.864 28.2455 109.014 33.3955 115.367 33.3963C121.72 33.3963 126.87 28.2467 126.871 21.894C126.871 15.5416 121.721 10.392 115.368 10.3918C109.016 10.3916 103.865 15.5409 103.865 21.8931ZM145.903 32.3488H150L140.942 21.5599L149.389 11.4414H145.315L138.9 19.1266L132.452 11.4414H128.355L136.863 21.574L127.868 32.3488H131.941L138.904 24.0076L145.903 32.3488ZM115.386 13.4973C111.998 13.4968 108.943 15.5374 107.647 18.6674C106.35 21.7975 107.066 25.4005 109.462 27.7962C111.858 30.1919 115.461 30.9086 118.591 29.6117C121.721 28.3149 123.762 25.2602 123.761 21.8722C123.76 17.2471 120.011 13.498 115.386 13.4973ZM88.6916 14.032C86.8173 14.0584 84.9943 14.649 83.4605 15.7268V28.6807C85.0862 29.4709 86.8873 29.8311 88.6916 29.7271C93.313 29.7271 97.0612 26.4977 97.0612 21.8796C97.0612 17.2615 93.3092 14.0308 88.6878 14.0308L88.6916 14.032ZM59.3979 0.954682H62.5365V32.3394H59.3979V0.954682ZM40.0403 32.3419L29.0614 21.363L39.0004 11.4176H43.4385L33.4995 21.363L44.4783 32.3419H40.0403ZM25.913 0.95433V32.3391H29.0516V0.95433H25.913ZM48.9438 32.3419H52.0824V11.4176H48.9438V32.3419Z" fill="#CFCFCF"></path> </svg> 