<?xml version="1.0" encoding="UTF-8"?> <svg xmlns="http://www.w3.org/2000/svg" width="129" height="32" viewBox="0 0 129 32" fill="none"> <path d="M102.425 27.1122C111.85 22.171 114.106 15.9325 111.211 14.177C106.939 11.8006 95.1792 16.0545 96.5341 27.7368C95.9513 28.0805 94.782 28.7125 94.782 28.7125L95.5504 31.0667C95.5504 31.0667 97.1985 30.0873 97.6217 29.7954C99.0025 30.9041 99.7189 31.5139 101.842 31.5693C106.382 31.6728 110.283 26.6539 110.283 26.6539L109.144 24.88C109.169 24.8652 104.177 29.6512 102.425 27.1122ZM103.676 19.9498C105.027 17.5734 107.206 15.7218 108.293 16.461C109.381 17.2001 107.206 20.9551 102.135 24.9613C101.924 24.6028 102.321 22.3484 103.676 19.9498ZM17.0654 31.5545C16.1393 31.5429 15.2541 31.1731 14.5969 30.5234C12.3401 28.1692 14.4633 20.2159 14.9125 18.4974C14.9234 18.4605 14.9256 18.4216 14.9188 18.3838C14.9121 18.3459 14.8965 18.3102 14.8735 18.2793C14.8504 18.2485 14.8205 18.2234 14.786 18.2061C14.7515 18.1888 14.7135 18.1797 14.6749 18.1795C14.6272 18.1796 14.5802 18.1918 14.5386 18.2151C14.497 18.2384 14.4621 18.272 14.4373 18.3126C13.4796 20.2418 8.30522 31.5545 3.73954 31.5545H3.47228C-0.959759 31.1295 -0.373274 25.05 1.00385 21.3505H8.1456C7.56283 22.936 7.37723 23.9375 7.37723 24.4697C7.40322 24.8393 7.72244 25.05 8.01197 24.8948C8.75436 24.4956 9.97559 22.9101 11.0372 21.0881C12.9488 17.7323 15.4433 12.7098 19.7342 0H27.5479C25.239 7.0811 23.3534 13.4785 22.3326 20.7961C22.3188 20.8843 22.3332 20.9746 22.3738 21.0542C22.4144 21.1338 22.4791 21.1986 22.5588 21.2395C22.6385 21.2804 22.7291 21.2953 22.8177 21.2821C22.9064 21.2688 22.9886 21.2281 23.0527 21.1657C25.2799 19.0776 33.4461 1.53005 33.9324 0H41.7905C41.7905 0 34.066 21.2729 34.7045 24.8393C34.7152 24.9709 34.7671 25.0958 34.8528 25.1965C34.9385 25.2972 35.0537 25.3686 35.1822 25.4008C35.3108 25.433 35.4462 25.4244 35.5696 25.376C35.6929 25.3277 35.798 25.2421 35.87 25.1313C36.3229 24.5769 36.9613 23.7565 37.4105 23.2538L38.524 24.3626C36.2969 27.1085 32.6592 32.0498 29.0512 31.4695C28.475 31.3503 27.9461 31.0665 27.5293 30.6528C23.7617 27.4042 29.0141 16.5164 29.9458 13.9516C30.1573 13.3972 30.3429 12.8687 30.4766 12.5509C30.4901 12.5122 30.4942 12.4709 30.4886 12.4304C30.4829 12.3898 30.4677 12.3512 30.4441 12.3176C30.4206 12.2841 30.3894 12.2566 30.3531 12.2374C30.3168 12.2182 30.2764 12.2078 30.2353 12.2072C30.1875 12.2068 30.1404 12.2189 30.0988 12.2423C30.0571 12.2656 30.0223 12.2994 29.9977 12.3402C29.8121 12.7356 29.3333 13.7668 29.1477 14.1105C26.8315 18.8928 21.4714 31.5545 17.0654 31.5545ZM90.8548 5.4439C88.7623 5.4072 86.7296 6.1402 85.1459 7.5024L85.2016 9.5905C85.2016 9.5905 87.696 7.0811 90.298 8.164C91.9944 8.8514 93.2676 10.8323 92.3136 14.2953C92.2617 14.5059 92.154 14.9051 92.102 15.1157C91.3596 13.5302 88.598 12.3143 84.7487 15.2192C81.9351 17.3332 81.2187 19.5802 80.6656 21.4059C79.8675 24.0743 79.9232 26.9496 80.5319 28.6718C80.7866 29.3434 81.1807 29.9539 81.6886 30.4634C82.1965 30.9729 82.8066 31.3699 83.4792 31.6285C89.8489 34.0344 94.8674 24.2369 96.4042 17.1743C97.3841 12.7098 98.1265 5.5732 90.8548 5.4439ZM87.4287 26.9016C86.7123 27.3783 85.4911 27.589 85.3055 25.3937C85.0679 22.2486 87.3767 18.5491 88.0672 17.6769C89.2624 16.2245 90.8808 16.1468 90.8548 18.4161C90.8288 21.0622 89.2067 25.7374 87.4287 26.9016ZM68.2121 3.6182C64.4445 2.3246 51.1372 6.5267 46.7385 21.1916C46.2077 21.3505 43.6354 21.9862 43.6354 21.9862L42.5218 24.9982L46.4601 23.7823C46.4601 23.7823 46.0333 31.3143 52.6702 31.5435C57.9003 31.355 60.6323 23.6936 58.9619 18.4863C58.6427 18.6452 54.4482 20.652 54.4482 20.652C54.4482 20.652 55.3242 25.7559 53.4683 26.9348C53.3975 26.9845 53.3172 27.0192 53.2324 27.0368C53.1477 27.0544 53.0602 27.0546 52.9753 27.0373C52.8905 27.02 52.8101 26.9855 52.7391 26.9362C52.6681 26.8868 52.608 26.8234 52.5626 26.75C52.0318 26.0109 51.6865 24.0558 52.273 21.4651C61.8535 16.4979 68.4088 7.7907 68.8097 4.7639C68.8581 4.5336 68.825 4.2937 68.7161 4.0849C68.6072 3.8761 68.4291 3.7112 68.2121 3.6182ZM56.2931 16.594C55.3007 17.36 54.2453 18.0412 53.1379 18.6304C53.1379 18.6304 53.639 17.4662 54.0139 16.8047C55.0458 15.0899 59.9827 8.4559 64.1252 7.24C64.1595 7.2275 64.1966 7.2244 64.2324 7.2313C64.2683 7.2382 64.3016 7.2547 64.3287 7.2791C64.3559 7.3034 64.3758 7.3347 64.3864 7.3695C64.397 7.4043 64.3978 7.4413 64.3888 7.4766C64.3888 8.9327 59.1364 14.4542 56.2931 16.594ZM76.0442 27.4301C76.0314 27.4684 76.0305 27.5097 76.0417 27.5486C76.053 27.5874 76.0758 27.6219 76.1072 27.6476C76.1386 27.6732 76.1771 27.6888 76.2175 27.6922C76.258 27.6956 76.2985 27.6866 76.3338 27.6666C76.8465 27.3306 77.3421 26.9692 77.8185 26.5837L78.3493 28.1951C78.0301 28.5388 75.48 30.5493 73.895 31.2884C72.1727 32.083 70.6062 31.026 70.365 29.7547C70.1274 28.2764 70.8698 26.3472 70.8698 26.3472C70.8698 26.3472 68.1378 29.4664 65.3502 30.9706C64.7985 31.3169 64.1675 31.5178 63.5165 31.5545C61.6345 31.4991 61.048 29.7067 61.2633 28.7236C61.5009 27.5631 64.051 19.765 64.3665 18.4974C64.3702 18.4631 64.3657 18.4284 64.3533 18.3962C64.341 18.364 64.3211 18.3352 64.2954 18.3121C64.2697 18.289 64.2388 18.2723 64.2054 18.2634C64.1719 18.2545 64.1368 18.2536 64.1029 18.2608C63.3309 18.4715 61.3153 19.7909 61.3153 19.7909V17.6252C61.3153 17.6252 67.1542 13.6596 68.6129 13.2383C69.9678 12.8687 71.1371 13.6337 70.7918 15.1675C70.6322 16.2245 66.8349 25.3937 66.8349 26.5579C66.8308 26.5892 66.8345 26.621 66.8457 26.6506C66.8569 26.6802 66.8752 26.7065 66.899 26.7274C66.9229 26.7482 66.9516 26.7628 66.9825 26.77C67.0134 26.7772 67.0456 26.7767 67.0762 26.7685C68.1638 26.4507 70.1534 24.7617 71.6679 22.3558C73.1007 20.1087 74.0546 17.2815 75.2499 13.7668H80.3204C80.3167 13.7926 76.4674 25.5009 76.0442 27.4301ZM128.995 16.4351C129.103 18.076 127.536 26.7168 121.166 30.1797C119.281 31.2108 118.008 31.6063 116.864 31.5545C114.158 31.4732 112.885 29.2816 112.592 28.5684C109.489 20.9033 118.564 13.7852 118.564 13.7852H123.82C123.82 13.7852 115.803 20.1568 116.92 25.8113C117.796 29.2447 121.003 27.5816 122.785 23.6973C123.13 22.9286 125.279 17.8284 123.928 17.7508C122.733 17.6695 121.14 20.1826 121.14 20.1826L120.027 18.49C120.903 17.3812 123.345 14.4727 126.081 13.5487C126.526 13.4231 128.969 12.9204 128.995 16.4351ZM40.8922 27.3783C41.307 27.3783 41.7125 27.5008 42.0574 27.7302C42.4023 27.9597 42.6711 28.2858 42.8298 28.6673C42.9886 29.0489 43.0301 29.4687 42.9492 29.8738C42.8683 30.2789 42.6685 30.6509 42.3752 30.9429C42.0819 31.235 41.7082 31.4338 41.3014 31.5144C40.8946 31.595 40.4729 31.5536 40.0897 31.3956C39.7065 31.2375 39.3789 30.9699 39.1485 30.6265C38.918 30.2831 38.795 29.8794 38.795 29.4664C38.793 29.1917 38.8459 28.9193 38.9506 28.665C39.0553 28.4108 39.2097 28.1798 39.4049 27.9855C39.6 27.7912 39.832 27.6375 40.0873 27.5333C40.3427 27.429 40.6163 27.3763 40.8922 27.3783Z" fill="#CFCFCF"></path> </svg> 