<?xml version="1.0" encoding="UTF-8"?> <svg xmlns="http://www.w3.org/2000/svg" width="156" height="30" viewBox="0 0 156 30" fill="none"> <path d="M70.005 14.892C70.005 20.783 66.412 23.568 61.915 23.568H59.165V20.033H61.7C64.413 20.033 66.221 18.569 66.221 14.892C66.221 11.249 64.511 9.428 61.62 9.428C58.835 9.428 56.845 11.142 56.845 14.82V29.603H53.095V6.357H56.844V8.357H57.379C58.629 6.679 60.476 5.929 62.404 5.929C66.545 5.929 70.004 8.929 70.004 14.892H70.005ZM45.371 13.356L42.871 13.106C40.908 12.927 39.873 12.392 39.873 11.249C39.873 9.892 41.193 9.107 43.086 9.107C45.049 9.107 46.299 10.035 46.406 11.357H50.011C49.869 8 47.263 5.929 43.121 5.929C38.945 5.929 36.124 8.142 36.124 11.392C36.124 14.106 37.838 15.855 41.729 16.248L44.264 16.498C45.799 16.641 46.834 16.962 46.834 18.426C46.834 19.748 45.87 20.712 43.336 20.712C41.002 20.712 39.852 19.652 39.448 18.232H35.548C35.936 21.478 38.662 23.997 43.336 23.997C47.726 23.997 50.583 21.676 50.583 18.247C50.583 15.213 48.583 13.677 45.371 13.356V13.356ZM84.523 18.232C83.935 19.583 82.53 20.605 80.536 20.605C77.788 20.605 75.753 18.819 75.753 14.963C75.753 11.285 77.645 9.249 80.572 9.249C83.178 9.249 84.678 10.821 84.82 13.177H78.073V15.891H88.497V14.106C88.497 9.142 85.213 5.929 80.537 5.929C76.181 5.929 72.004 8.892 72.004 14.963C72.004 21.033 76.181 23.997 80.536 23.997C84.52 23.997 87.361 21.542 88.243 18.232H84.523V18.232ZM25.433 5.929C21.327 5.929 18.257 8.071 17.9 11.356H21.934C22.22 10.142 23.326 9.25 25.433 9.25C28.146 9.25 29.038 10.678 29.038 12.428V18.319C27.503 20.069 25.718 20.89 23.933 20.89C22.077 20.89 20.792 19.998 20.792 18.391C20.792 16.855 21.792 15.891 23.719 15.891H26.718V13.177H23.612C19.328 13.177 16.936 15.32 16.936 18.605C16.936 21.675 19.256 23.997 23.076 23.997C25.218 23.997 27.111 23.14 28.503 22.104H29.038V23.568H32.787V12.07C32.787 7.821 29.895 5.929 25.433 5.929V5.929ZM0 23.569H3.748V0H0V23.567V23.569ZM15.743 6.356H11.173L5.712 13.534V15.784L11.316 23.567H15.957L9.389 14.642L15.743 6.358V6.356ZM151.249 6.356L148.179 13.176C147.429 14.819 146.716 16.426 146.501 17.497H145.965C145.751 16.426 145.002 14.855 144.252 13.212L141.182 6.356H137.041L144.252 21.818L140.682 29.602H144.681L155.39 6.356H151.249V6.356ZM136.212 6.356H131.642L126.18 13.534V15.784L131.785 23.567H136.426L129.857 14.64L136.212 6.356ZM112.743 13.355L110.244 13.105C108.28 12.926 107.245 12.391 107.245 11.248C107.245 9.891 108.566 9.106 110.458 9.106C112.421 9.106 113.671 10.034 113.778 11.356H117.383C117.241 7.999 114.635 5.928 110.494 5.928C106.317 5.928 103.497 8.141 103.497 11.391C103.497 14.105 105.21 15.854 109.101 16.247L111.636 16.497C113.171 16.64 114.206 16.961 114.206 18.425C114.206 19.747 113.242 20.711 110.708 20.711C108.374 20.711 107.224 19.651 106.82 18.231H102.919C103.308 21.477 106.034 23.996 110.708 23.996C115.099 23.996 117.955 21.675 117.955 18.246C117.955 15.212 115.956 13.676 112.743 13.355V13.355ZM120.468 23.567H124.217V0.002H120.468V23.569V23.567ZM95.75 8.357H95.215V6.357H91.465V23.568H95.214V14.57C95.214 11.499 96.632 9.714 99.426 9.714H101.799V5.929H100.426C97.833 5.929 96.732 6.907 95.749 8.357H95.75Z" fill="#CFCFCF"></path> </svg> 